<svg class="svg-icon" style="width: 1em; height: 1em;vertical-align: middle;fill: currentColor;overflow: hidden;" viewBox="0 0 1024 1024" version="1.1" xmlns="http://www.w3.org/2000/svg"><path d="M964.352 426.837333a42.666667 42.666667 0 0 0-41.984-35.072H520.533333a42.666667 42.666667 0 0 0-42.666666 42.666667v165.034667a42.666667 42.666667 0 0 0 42.666666 42.666666h169.045334a155.818667 155.818667 0 0 1-48.256 50.645334 215.893333 215.893333 0 0 1-120.789334 33.493333 210.56 210.56 0 0 1-198.229333-146.645333v-0.085334a209.237333 209.237333 0 0 1 0-135.125333v-0.085333A210.602667 210.602667 0 0 1 520.533333 297.728a186.794667 186.794667 0 0 1 133.589334 51.925333 42.666667 42.666667 0 0 0 59.690666-0.64l122.368-122.368a42.666667 42.666667 0 0 0-1.066666-61.397333A453.248 453.248 0 0 0 520.533333 42.666667a467.157333 467.157333 0 0 0-419.370666 258.517333l-0.042667 0.085333A466.005333 466.005333 0 0 0 51.2 512a472.704 472.704 0 0 0 49.92 210.773333l0.042667 0.042667A467.157333 467.157333 0 0 0 520.533333 981.333333a449.066667 449.066667 0 0 0 311.253334-114.645333l0.042666-0.042667a460.202667 460.202667 0 0 0 140.970667-344.917333 533.973333 533.973333 0 0 0-8.448-94.890667zM520.533333 128a370.432 370.432 0 0 1 222.208 71.381333l-61.994666 61.994667A275.754667 275.754667 0 0 0 520.533333 212.394667a293.802667 293.802667 0 0 0-255.573333 151.466666L219.392 328.533333l-24.96-19.370666A381.994667 381.994667 0 0 1 520.533333 128zM157.013333 635.861333a385.28 385.28 0 0 1 0-247.722666l76.032 58.965333a292.437333 292.437333 0 0 0 0 129.792zM520.533333 896a381.994667 381.994667 0 0 1-326.144-181.162667l16.170667-12.544 54.442667-42.24a293.76 293.76 0 0 0 255.530666 151.552 310.485333 310.485333 0 0 0 141.056-32l72.149334 56.021334A379.306667 379.306667 0 0 1 520.533333 896z m278.442667-117.76l-7.808-6.101333-58.752-45.610667a239.189333 239.189333 0 0 0 59.733333-119.296 42.666667 42.666667 0 0 0-41.984-50.432H563.2v-79.701333h322.090667c1.450667 14.72 2.176 29.653333 2.176 44.629333a386.218667 386.218667 0 0 1-88.490667 256.469333z"  /></svg>